<svg width="207" height="36" viewBox="0 0 207 36" fill="none" xmlns="http://www.w3.org/2000/svg">
<path d="M9.53544 16.136H25.0394V23.48H9.53544V16.136ZM10.2074 35H0.703437V1.4H27.0554V8.744H10.2074V35ZM43.8431 35.672C41.1551 35.672 38.6751 35.24 36.4031 34.376C34.1311 33.512 32.1471 32.296 30.4511 30.728C28.7871 29.128 27.4911 27.272 26.5631 25.16C25.6351 23.048 25.1711 20.728 25.1711 18.2C25.1711 15.672 25.6351 13.352 26.5631 11.24C27.4911 9.128 28.7871 7.288 30.4511 5.72C32.1471 4.12 34.1311 2.888 36.4031 2.024C38.6751 1.16 41.1551 0.727998 43.8431 0.727998C46.5631 0.727998 49.0431 1.16 51.2831 2.024C53.5551 2.888 55.5231 4.12 57.1871 5.72C58.8511 7.288 60.1471 9.128 61.0751 11.24C62.0351 13.352 62.5151 15.672 62.5151 18.2C62.5151 20.728 62.0351 23.064 61.0751 25.208C60.1471 27.32 58.8511 29.16 57.1871 30.728C55.5231 32.296 53.5551 33.512 51.2831 34.376C49.0431 35.24 46.5631 35.672 43.8431 35.672ZM43.8431 27.8C45.1231 27.8 46.3071 27.576 47.3951 27.128C48.5151 26.68 49.4751 26.04 50.2751 25.208C51.1071 24.344 51.7471 23.32 52.1951 22.136C52.6751 20.952 52.9151 19.64 52.9151 18.2C52.9151 16.728 52.6751 15.416 52.1951 14.264C51.7471 13.08 51.1071 12.072 50.2751 11.24C49.4751 10.376 48.5151 9.72 47.3951 9.272C46.3071 8.824 45.1231 8.6 43.8431 8.6C42.5631 8.6 41.3631 8.824 40.2431 9.272C39.1551 9.72 38.1951 10.376 37.3631 11.24C36.5631 12.072 35.9231 13.08 35.4431 14.264C34.9951 15.416 34.7711 16.728 34.7711 18.2C34.7711 19.64 34.9951 20.952 35.4431 22.136C35.9231 23.32 36.5631 24.344 37.3631 25.208C38.1951 26.04 39.1551 26.68 40.2431 27.128C41.3631 27.576 42.5631 27.8 43.8431 27.8ZM73.8768 35.672C71.1888 35.672 68.7088 35.24 66.4368 34.376C64.1648 33.512 62.1808 32.296 60.4848 30.728C58.8208 29.128 57.5248 27.272 56.5968 25.16C55.6688 23.048 55.2048 20.728 55.2048 18.2C55.2048 15.672 55.6688 13.352 56.5968 11.24C57.5248 9.128 58.8208 7.288 60.4848 5.72C62.1808 4.12 64.1648 2.888 66.4368 2.024C68.7088 1.16 71.1888 0.727998 73.8768 0.727998C76.5968 0.727998 79.0768 1.16 81.3168 2.024C83.5888 2.888 85.5568 4.12 87.2208 5.72C88.8848 7.288 90.1808 9.128 91.1088 11.24C92.0688 13.352 92.5488 15.672 92.5488 18.2C92.5488 20.728 92.0688 23.064 91.1088 25.208C90.1808 27.32 88.8848 29.16 87.2208 30.728C85.5568 32.296 83.5888 33.512 81.3168 34.376C79.0768 35.24 76.5968 35.672 73.8768 35.672ZM73.8768 27.8C75.1568 27.8 76.3408 27.576 77.4288 27.128C78.5488 26.68 79.5088 26.04 80.3088 25.208C81.1408 24.344 81.7808 23.32 82.2288 22.136C82.7088 20.952 82.9488 19.64 82.9488 18.2C82.9488 16.728 82.7088 15.416 82.2288 14.264C81.7808 13.08 81.1408 12.072 80.3088 11.24C79.5088 10.376 78.5488 9.72 77.4288 9.272C76.3408 8.824 75.1568 8.6 73.8768 8.6C72.5968 8.6 71.3968 8.824 70.2768 9.272C69.1888 9.72 68.2288 10.376 67.3968 11.24C66.5968 12.072 65.9568 13.08 65.4768 14.264C65.0288 15.416 64.8048 16.728 64.8048 18.2C64.8048 19.64 65.0288 20.952 65.4768 22.136C65.9568 23.32 66.5968 24.344 67.3968 25.208C68.2288 26.04 69.1888 26.68 70.2768 27.128C71.3968 27.576 72.5968 27.8 73.8768 27.8ZM91.7666 35V1.4H107.655C111.367 1.4 114.631 2.088 117.447 3.464C120.263 4.84 122.455 6.776 124.023 9.272C125.623 11.768 126.423 14.744 126.423 18.2C126.423 21.624 125.623 24.6 124.023 27.128C122.455 29.624 120.263 31.56 117.447 32.936C114.631 34.312 111.367 35 107.655 35H91.7666ZM101.271 27.416H107.271C109.191 27.416 110.855 27.064 112.263 26.36C113.703 25.624 114.823 24.568 115.623 23.192C116.423 21.784 116.823 20.12 116.823 18.2C116.823 16.248 116.423 14.584 115.623 13.208C114.823 11.832 113.703 10.792 112.263 10.088C110.855 9.352 109.191 8.984 107.271 8.984H101.271V27.416ZM131.423 35V1.4H140.927V35H131.423ZM156.424 14.408H172.024V21.512H156.424V14.408ZM157.096 27.656H174.664V35H147.688V1.4H174.04V8.744H157.096V27.656ZM191.746 35.672C188.994 35.672 186.338 35.336 183.778 34.664C181.25 33.96 179.186 33.064 177.586 31.976L180.706 24.968C182.21 25.928 183.938 26.728 185.89 27.368C187.874 27.976 189.842 28.28 191.794 28.28C193.106 28.28 194.162 28.168 194.962 27.944C195.762 27.688 196.338 27.368 196.69 26.984C197.074 26.568 197.266 26.088 197.266 25.544C197.266 24.776 196.914 24.168 196.21 23.72C195.506 23.272 194.594 22.904 193.474 22.616C192.354 22.328 191.106 22.04 189.73 21.752C188.386 21.464 187.026 21.096 185.65 20.648C184.306 20.2 183.074 19.624 181.954 18.92C180.834 18.184 179.922 17.24 179.218 16.088C178.514 14.904 178.162 13.416 178.162 11.624C178.162 9.608 178.706 7.784 179.794 6.152C180.914 4.52 182.578 3.208 184.786 2.216C186.994 1.224 189.746 0.727998 193.042 0.727998C195.25 0.727998 197.41 0.983998 199.522 1.496C201.666 1.976 203.57 2.696 205.234 3.656L202.306 10.712C200.706 9.848 199.122 9.208 197.554 8.792C195.986 8.344 194.466 8.12 192.994 8.12C191.682 8.12 190.626 8.264 189.826 8.552C189.026 8.808 188.45 9.16 188.098 9.608C187.746 10.056 187.57 10.568 187.57 11.144C187.57 11.88 187.906 12.472 188.578 12.92C189.282 13.336 190.194 13.688 191.314 13.976C192.466 14.232 193.714 14.504 195.058 14.792C196.434 15.08 197.794 15.448 199.138 15.896C200.514 16.312 201.762 16.888 202.882 17.624C204.002 18.328 204.898 19.272 205.57 20.456C206.274 21.608 206.626 23.064 206.626 24.824C206.626 26.776 206.066 28.584 204.946 30.248C203.858 31.88 202.21 33.192 200.002 34.184C197.826 35.176 195.074 35.672 191.746 35.672Z" fill="#FF6E13"/>
</svg>
